<mxfile host="app.diagrams.net" modified="2024-05-09T08:03:30.007Z" agent="Mozilla/5.0 (Windows NT 10.0; Win64; x64) AppleWebKit/537.36 (KHTML, like Gecko) Chrome/123.0.0.0 Safari/537.36 Edg/123.0.0.0" etag="QnUV2onOkLSfd7Dq4Gol" version="24.3.1" type="github">
  <diagram name="第 1 页" id="uCOSBbnJGnaGC9hqoJ6O">
    <mxGraphModel dx="660" dy="361" grid="1" gridSize="10" guides="1" tooltips="1" connect="1" arrows="1" fold="1" page="1" pageScale="1" pageWidth="827" pageHeight="1169" math="0" shadow="0">
      <root>
        <mxCell id="0" />
        <mxCell id="1" parent="0" />
        <mxCell id="TkUjozet9fXl-uIEF4UU-6" style="edgeStyle=orthogonalEdgeStyle;rounded=0;orthogonalLoop=1;jettySize=auto;html=1;endArrow=classic;endFill=1;startArrow=classic;startFill=1;shape=flexArrow;" edge="1" parent="1" source="TkUjozet9fXl-uIEF4UU-1" target="TkUjozet9fXl-uIEF4UU-5">
          <mxGeometry relative="1" as="geometry" />
        </mxCell>
        <mxCell id="TkUjozet9fXl-uIEF4UU-1" value="model&lt;br&gt;前端模型" style="rounded=1;whiteSpace=wrap;html=1;" vertex="1" parent="1">
          <mxGeometry x="400" y="480" width="80" height="50" as="geometry" />
        </mxCell>
        <mxCell id="TkUjozet9fXl-uIEF4UU-8" style="edgeStyle=orthogonalEdgeStyle;rounded=0;orthogonalLoop=1;jettySize=auto;html=1;entryX=0;entryY=0.5;entryDx=0;entryDy=0;shape=flexArrow;startArrow=block;" edge="1" parent="1" source="TkUjozet9fXl-uIEF4UU-2" target="TkUjozet9fXl-uIEF4UU-1">
          <mxGeometry relative="1" as="geometry">
            <Array as="points">
              <mxPoint x="320" y="505" />
            </Array>
          </mxGeometry>
        </mxCell>
        <mxCell id="TkUjozet9fXl-uIEF4UU-2" value="server&lt;div&gt;服务器&lt;/div&gt;" style="rounded=1;whiteSpace=wrap;html=1;" vertex="1" parent="1">
          <mxGeometry x="280" y="360" width="80" height="50" as="geometry" />
        </mxCell>
        <mxCell id="TkUjozet9fXl-uIEF4UU-10" style="edgeStyle=orthogonalEdgeStyle;rounded=0;orthogonalLoop=1;jettySize=auto;html=1;entryX=1;entryY=0.5;entryDx=0;entryDy=0;shape=flexArrow;startArrow=block;" edge="1" parent="1" source="TkUjozet9fXl-uIEF4UU-3" target="TkUjozet9fXl-uIEF4UU-1">
          <mxGeometry relative="1" as="geometry">
            <Array as="points">
              <mxPoint x="560" y="505" />
            </Array>
          </mxGeometry>
        </mxCell>
        <mxCell id="TkUjozet9fXl-uIEF4UU-3" value="用户交互" style="rounded=1;whiteSpace=wrap;html=1;" vertex="1" parent="1">
          <mxGeometry x="520" y="360" width="80" height="50" as="geometry" />
        </mxCell>
        <mxCell id="TkUjozet9fXl-uIEF4UU-9" style="edgeStyle=orthogonalEdgeStyle;rounded=0;orthogonalLoop=1;jettySize=auto;html=1;entryX=0.5;entryY=0;entryDx=0;entryDy=0;shape=flexArrow;startArrow=block;" edge="1" parent="1" source="TkUjozet9fXl-uIEF4UU-4" target="TkUjozet9fXl-uIEF4UU-1">
          <mxGeometry relative="1" as="geometry" />
        </mxCell>
        <mxCell id="TkUjozet9fXl-uIEF4UU-4" value="ui界面" style="rounded=1;whiteSpace=wrap;html=1;" vertex="1" parent="1">
          <mxGeometry x="400" y="360" width="80" height="50" as="geometry" />
        </mxCell>
        <mxCell id="TkUjozet9fXl-uIEF4UU-5" value="用户交互" style="rounded=1;whiteSpace=wrap;html=1;" vertex="1" parent="1">
          <mxGeometry x="400" y="610" width="80" height="50" as="geometry" />
        </mxCell>
      </root>
    </mxGraphModel>
  </diagram>
</mxfile>
